
<svg version="1.1" xmlns="http://www.w3.org/2000/svg" width="50" height="50">
<path d="M0 0 C1.03060547 0.00257813 2.06121094 0.00515625 3.12304688 0.0078125 C4.18974609 0.03617187 5.25644531 0.06453125 6.35546875 0.09375 C7.41056641 0.09117187 8.46566406 0.08859375 9.55273438 0.0859375 C18.75271304 0.20057898 25.87252957 1.77170993 32.54296875 8.59375 C36.79151789 14.67474046 38.38211197 21.6557149 37.13671875 28.984375 C35.14797822 35.94496686 31.44524768 40.92762691 25.16796875 44.53125 C24.30171875 44.881875 23.43546875 45.2325 22.54296875 45.59375 C25.7532939 50.05658838 29.08259727 54.21474765 32.85546875 58.21875 C35.23110041 60.86744277 36.49617182 62.46567419 37.73046875 65.84375 C37.47993697 69.51821614 36.14616041 71.99055834 33.54296875 74.59375 C27.91271665 75.15677521 27.91271665 75.15677521 25.54296875 74.59375 C23.19921875 72.51953125 23.19921875 72.51953125 20.54296875 69.59375 C19.44529665 68.43237671 18.3462644 67.27228793 17.24609375 66.11328125 C16.09403234 64.87855485 14.94300543 63.64286247 13.79296875 62.40625 C13.20386719 61.77783203 12.61476563 61.14941406 12.0078125 60.50195312 C11.44707031 59.89931641 10.88632812 59.29667969 10.30859375 58.67578125 C9.80102539 58.13155518 9.29345703 57.5873291 8.77050781 57.02661133 C7.54296875 55.59375 7.54296875 55.59375 6.54296875 53.59375 C6.5171875 54.77453125 6.49140625 55.9553125 6.46484375 57.171875 C6.40855478 58.72920323 6.35120761 60.28649347 6.29296875 61.84375 C6.27169922 63.00970703 6.27169922 63.00970703 6.25 64.19921875 C6.0905377 67.93063655 5.96101033 70.00940058 3.74609375 73.10546875 C1.43534474 74.66645345 0.30063016 75.16163606 -2.45703125 75.15625 C-3.44703125 75.18912109 -3.44703125 75.18912109 -4.45703125 75.22265625 C-7.6011247 74.23398624 -8.65743686 72.28926367 -10.45703125 69.59375 C-10.97169495 66.59643555 -10.97169495 66.59643555 -10.99047852 63.23046875 C-11.01423302 61.33325073 -11.01423302 61.33325073 -11.03846741 59.39770508 C-11.03462596 58.02554962 -11.02958693 56.65339706 -11.0234375 55.28125 C-11.02867588 53.86547436 -11.03495315 52.44970222 -11.04222107 51.03393555 C-11.05261226 48.07160987 -11.04808241 45.10976496 -11.03344727 42.14746094 C-11.0162522 38.35742509 -11.03976742 34.56890431 -11.07493687 30.77903748 C-11.09693102 27.85695414 -11.09546492 24.93523233 -11.08717155 22.01309204 C-11.08635327 20.61608212 -11.09319326 19.21904533 -11.10794258 17.82211304 C-11.12542222 15.86715277 -11.10750643 13.91197369 -11.08813477 11.95703125 C-11.087173 10.84626221 -11.08621124 9.73549316 -11.08522034 8.59106445 C-9.83370814 2.61965285 -5.88331435 -0.04493028 0 0 Z M5.54296875 16.59375 C5.54296875 21.21375 5.54296875 25.83375 5.54296875 30.59375 C7.27546875 30.655625 9.00796875 30.7175 10.79296875 30.78125 C11.7675 30.81605469 12.74203125 30.85085938 13.74609375 30.88671875 C16.95976669 30.550091 18.23604384 29.81072601 20.54296875 27.59375 C21.71274369 25.24502469 21.71274369 25.24502469 21.54296875 22.59375 C19.76633353 19.89816552 18.4501243 18.04732777 15.54296875 16.59375 C13.8359414 16.52378986 12.12628872 16.50934846 10.41796875 16.53125 C8.80921875 16.551875 7.20046875 16.5725 5.54296875 16.59375 Z " fill="#000000" transform="translate(292.45703125,368.40625)"/>
<path d="M0 0 C1.16466797 -0.00515625 2.32933594 -0.0103125 3.52929688 -0.015625 C4.74294922 -0.00015625 5.95660156 0.0153125 7.20703125 0.03125 C8.40134766 0.01578125 9.59566406 0.0003125 10.82617188 -0.015625 C20.3810727 0.02644391 28.26558265 1.94412829 35.38671875 8.6015625 C43.35472385 18.0182958 45.43548764 29.86718283 44.859375 41.8671875 C43.62224687 51.21170874 39.79519305 59.90958051 33.01953125 66.53125 C24.41552282 72.12537562 17.7204088 72.76499513 7.58203125 72.84375 C5.72094727 72.88725586 5.72094727 72.88725586 3.82226562 72.93164062 C2.0346582 72.94420898 2.0346582 72.94420898 0.2109375 72.95703125 C-0.88017334 72.97161377 -1.97128418 72.98619629 -3.09545898 73.0012207 C-6.75595291 72.40492293 -7.71072951 71.42624981 -9.98046875 68.53125 C-10.48840332 65.64746094 -10.48840332 65.64746094 -10.49804688 62.265625 C-10.51065552 60.99750977 -10.52326416 59.72939453 -10.53625488 58.42285156 C-10.52909505 57.04231205 -10.52089106 55.66177761 -10.51171875 54.28125 C-10.51441437 52.86165094 -10.51829738 51.44205369 -10.52331543 50.02246094 C-10.52920733 47.04995106 -10.52065829 44.07792259 -10.50195312 41.10546875 C-10.47916275 37.29866213 -10.49228763 33.49298351 -10.51624298 29.68621826 C-10.53070989 26.75561044 -10.5260911 23.82526926 -10.51573181 20.89465332 C-10.51306694 19.49125026 -10.51632592 18.08782285 -10.52565002 16.68444824 C-10.53582816 14.72192865 -10.51755915 12.75932398 -10.49804688 10.796875 C-10.4948645 9.68086914 -10.49168213 8.56486328 -10.48840332 7.41503906 C-9.41421829 1.31637356 -5.70300428 0.02443708 0 0 Z M6.01953125 16.53125 C6.01953125 29.73125 6.01953125 42.93125 6.01953125 56.53125 C16.81588895 57.3190886 16.81588895 57.3190886 21.51953125 55.03125 C26.38033353 50.17044772 28.57056534 44.73128076 29.0546875 37.89453125 C28.9513929 30.9508387 27.60857632 24.90698851 23.01953125 19.53125 C17.27637071 15.50225849 17.27637071 15.50225849 6.01953125 16.53125 Z " fill="#000000" transform="translate(418.98046875,369.46875)"/>
<path d="M0 0 C2.82872463 2.2808185 4.85923685 5.08201711 7 8 C7.72058594 8.97195313 8.44117187 9.94390625 9.18359375 10.9453125 C10.6008057 12.88040047 12.00659555 14.8239285 13.3984375 16.77734375 C14.81493221 18.86836892 14.81493221 18.86836892 16 20 C16.31227539 19.53625977 16.62455078 19.07251953 16.94628906 18.59472656 C18.37630155 16.47669918 19.81307355 14.36334221 21.25 12.25 C21.74113281 11.52039063 22.23226562 10.79078125 22.73828125 10.0390625 C27.81044443 2.59988983 27.81044443 2.59988983 31 0 C34.98452984 -0.56921855 37.05493748 -0.67149179 40.375 1.6875 C42.29015231 4.41290906 43 5.65026228 43 9 C40.43731793 15.63702217 36.14038963 21.06941094 31.80273438 26.61914062 C28.03025026 31.30541462 28.03025026 31.30541462 27 37 C28.57318533 39.60707796 30.11863273 41.824762 32 44.1875 C33.01716646 45.52585977 34.03409323 46.86440174 35.05078125 48.203125 C36.7893561 50.44983 38.53914107 52.68701451 40.29296875 54.921875 C45.41430609 61.72216623 45.41430609 61.72216623 45.6875 66.375 C45 70 45 70 43.4375 72.5 C40.00863886 74.61006839 37.95779649 74.62491523 34 74 C29.21352148 69.9298652 25.79895022 64.78862311 22.1875 59.6875 C21.59001953 58.85154297 20.99253906 58.01558594 20.37695312 57.15429688 C18.9137513 55.10581432 17.45492361 53.05436616 16 51 C11.70609873 54.97381045 8.58570069 59.31411502 5.375 64.1875 C4.42975185 65.62197794 3.4794254 67.0531257 2.5234375 68.48046875 C2.11013184 69.10848389 1.69682617 69.73649902 1.27099609 70.38354492 C0 72 0 72 -3 74 C-6.61413643 74.32855786 -9.09896279 74.45051861 -12.375 72.8125 C-14.5108359 70.4302215 -14.92701433 69.21136969 -15 66 C-12.83481753 59.84591505 -9.37240061 55.02006312 -5.5 49.8125 C-4.91863281 49.01908203 -4.33726563 48.22566406 -3.73828125 47.40820312 C0.80834784 41.21251063 0.80834784 41.21251063 2.75195312 39.05737305 C4.23685256 37.04533242 4.23685256 37.04533242 3.86694336 34.51123047 C2.94308622 31.83514076 1.8534356 30.0579533 0.12890625 27.8203125 C-0.44537109 27.05589844 -1.01964844 26.29148437 -1.61132812 25.50390625 C-2.82355451 23.9247707 -4.03708565 22.34663585 -5.25195312 20.76953125 C-8.64081352 16.25358067 -11.08368163 12.62381656 -12 7 C-9.5606832 0.41384463 -7.0084294 -1.03403057 0 0 Z " fill="#000000" transform="translate(119,369)"/>
<path d="M0 0 C1.53237305 -0.00773437 1.53237305 -0.00773437 3.09570312 -0.015625 C4.15337891 -0.00015625 5.21105469 0.0153125 6.30078125 0.03125 C7.85829102 0.00804687 7.85829102 0.00804687 9.44726562 -0.015625 C17.50668388 0.02479841 24.49162561 1.40147247 31.015625 6.35546875 C35.81649277 12.18247619 38.18272497 17.51272474 38.98828125 25.03125 C38.14843447 32.86981991 35.69458388 39.30513055 29.61328125 44.53125 C23.8103811 48.14707225 18.78606881 49.66167364 11.92578125 49.59375 C10.15654297 49.58021484 10.15654297 49.58021484 8.3515625 49.56640625 C7.44792969 49.55480469 6.54429687 49.54320312 5.61328125 49.53125 C5.66548828 51.50158203 5.66548828 51.50158203 5.71875 53.51171875 C5.74689591 55.24738301 5.77419521 56.98306115 5.80078125 58.71875 C5.82591797 59.58306641 5.85105469 60.44738281 5.87695312 61.33789062 C5.93350877 66.25823209 5.80604386 69.51818063 2.61328125 73.53125 C0.76296135 75.3815699 -1.81143957 74.82265132 -4.28125 74.95703125 C-7.36985969 74.332433 -8.43426815 72.97107305 -10.38671875 70.53125 C-10.90138245 67.5715332 -10.90138245 67.5715332 -10.92016602 64.08203125 C-10.93600235 62.77387451 -10.95183868 61.46571777 -10.96815491 60.11791992 C-10.9643136 58.69319298 -10.95927465 57.26846884 -10.953125 55.84375 C-10.95836097 54.37930913 -10.96463735 52.91487164 -10.97190857 51.45043945 C-10.98231005 48.38379019 -10.97775508 45.31760503 -10.96313477 42.25097656 C-10.9459396 38.32294979 -10.96945001 34.39638479 -11.00462437 30.46852112 C-11.02659439 27.44525479 -11.02515821 24.42233855 -11.01685905 21.39901733 C-11.01603943 19.95094193 -11.02290517 18.50284085 -11.03763008 17.05484009 C-11.05506487 15.03011394 -11.03722047 13.00517704 -11.01782227 10.98046875 C-11.0168605 9.82893311 -11.01589874 8.67739746 -11.01490784 7.4909668 C-10.38671875 4.53125 -10.38671875 4.53125 -8.01052856 2.16052246 C-5.056275 0.32605872 -3.44727651 0.01698614 0 0 Z M5.61328125 16.53125 C5.61328125 22.14125 5.61328125 27.75125 5.61328125 33.53125 C13.70511268 34.13977373 13.70511268 34.13977373 20.61328125 30.53125 C22.32708565 28.194244 22.62506631 26.99086717 22.55078125 24.09375 C21.18197473 20.35234551 19.90569736 18.83594128 16.61328125 16.53125 C12.84218813 16.10693573 9.42877443 16.30140101 5.61328125 16.53125 Z " fill="#000000" transform="translate(190.38671875,368.46875)"/>
<path d="M0 0 C1.28068359 -0.00257813 2.56136719 -0.00515625 3.88085938 -0.0078125 C4.88064819 -0.00152832 4.88064819 -0.00152832 5.90063477 0.00488281 C7.9308067 0.01556921 9.96009023 0.00498821 11.99023438 -0.0078125 C13.27220703 -0.00523437 14.55417969 -0.00265625 15.875 0 C17.0498999 0.00225586 18.2247998 0.00451172 19.43530273 0.00683594 C22.39374931 0.25633497 24.04405228 0.6595719 26.50390625 2.265625 C28.58549645 4.94195526 28.49978216 6.38316168 28.37890625 9.828125 C27.50390625 13.265625 27.50390625 13.265625 25.74707031 14.9621582 C23.15452672 16.46864386 21.71320627 16.61580385 18.73828125 16.55859375 C17.84882812 16.54892578 16.959375 16.53925781 16.04296875 16.52929688 C15.12257813 16.50416016 14.2021875 16.47902344 13.25390625 16.453125 C12.31804687 16.43958984 11.3821875 16.42605469 10.41796875 16.41210938 C8.11303404 16.37682976 5.8083962 16.32302466 3.50390625 16.265625 C3.50390625 20.555625 3.50390625 24.845625 3.50390625 29.265625 C5.25767578 29.21341797 5.25767578 29.21341797 7.046875 29.16015625 C8.59503766 29.13200784 10.14321593 29.10470881 11.69140625 29.078125 C12.46033203 29.05298828 13.22925781 29.02785156 14.02148438 29.00195312 C18.68925136 28.94185312 21.71183502 29.22460477 25.50390625 32.265625 C26.9482148 35.15424209 26.88079131 37.06210201 26.50390625 40.265625 C24.47710093 43.06318728 22.90998998 44.9975269 19.40527344 45.66577148 C16.98234546 45.75753365 14.61271521 45.70234369 12.19140625 45.578125 C11.35544922 45.55556641 10.51949219 45.53300781 9.65820312 45.50976562 C7.60599476 45.4511311 5.55471423 45.36145715 3.50390625 45.265625 C3.50390625 49.555625 3.50390625 53.845625 3.50390625 58.265625 C4.81746094 58.23082031 6.13101563 58.19601562 7.484375 58.16015625 C9.22003926 58.13201034 10.9557174 58.10471104 12.69140625 58.078125 C13.55572266 58.05298828 14.42003906 58.02785156 15.31054688 58.00195312 C20.133636 57.94651532 23.70769663 57.90889674 27.50390625 61.265625 C28.38671875 63.1328125 28.38671875 63.1328125 28.62890625 65.140625 C28.73460937 65.79804688 28.8403125 66.45546875 28.94921875 67.1328125 C28.22108622 70.62018407 26.19938796 72.04288445 23.50390625 74.265625 C20.15405273 74.89672852 20.15405273 74.89672852 16.375 74.89453125 C15.70348404 74.89694321 15.03196808 74.89935516 14.34010315 74.90184021 C12.92727728 74.90086491 11.51441169 74.88754641 10.10180664 74.86254883 C7.94350191 74.82815839 5.78927882 74.84191832 3.63085938 74.86132812 C2.25388889 74.85443081 0.87692893 74.84475943 -0.5 74.83203125 C-1.74595947 74.82115479 -2.99191895 74.81027832 -4.27563477 74.79907227 C-8.05215111 74.17351786 -9.21722036 73.28324088 -11.49609375 70.265625 C-12.55181697 67.09845533 -12.63546889 64.82380497 -12.65722656 61.49658203 C-12.66683411 60.31170197 -12.67644165 59.1268219 -12.68634033 57.90603638 C-12.69059021 56.62477875 -12.69484009 55.34352112 -12.69921875 54.0234375 C-12.70491882 52.70777802 -12.7106189 51.39211853 -12.7164917 50.03659058 C-12.72699094 47.25078953 -12.73284067 44.46501726 -12.73632812 41.67919922 C-12.74181131 38.11594242 -12.76583957 34.55306803 -12.79430008 30.98993111 C-12.81744418 27.58444058 -12.81937712 24.1790026 -12.82421875 20.7734375 C-12.83656555 19.49622833 -12.84891235 18.21901917 -12.8616333 16.90310669 C-12.8586322 15.7119223 -12.8556311 14.52073792 -12.85253906 13.29345703 C-12.85618469 12.24771515 -12.85983032 11.20197327 -12.86358643 10.12454224 C-12.43533892 6.79298145 -11.4860409 4.95230529 -9.49609375 2.265625 C-5.90746612 -0.12679342 -4.26246641 0.00819199 0 0 Z " fill="#000000" transform="translate(60.49609375,368.734375)"/>
<path d="M0 0 C1.35199443 -0.01152637 2.70394311 -0.03198922 4.05566406 -0.06152344 C6.01399132 -0.10429315 7.97288842 -0.11778067 9.93164062 -0.13061523 C11.68613525 -0.15248901 11.68613525 -0.15248901 13.47607422 -0.17480469 C17.2977125 0.38961557 18.94024595 1.60351468 21.65820312 4.29516602 C22.28710938 6.29516602 22.28710938 6.29516602 22.22070312 8.29516602 C22.22263672 9.28516602 22.22263672 9.28516602 22.22460938 10.29516602 C21.3374085 13.42790288 20.38010899 14.45063611 17.65820312 16.29516602 C14.22853152 16.784739 10.86350074 16.67098918 7.40820312 16.54516602 C6.47234375 16.52711914 5.53648437 16.50907227 4.57226562 16.49047852 C2.26713874 16.44343511 -0.03746041 16.37169379 -2.34179688 16.29516602 C-2.34179688 20.58516602 -2.34179688 24.87516602 -2.34179688 29.29516602 C-1.16101563 29.27196289 0.01976562 29.24875977 1.23632812 29.22485352 C2.79361346 29.20609104 4.35090564 29.18789135 5.90820312 29.17016602 C6.68550781 29.1534082 7.4628125 29.13665039 8.26367188 29.11938477 C15.52836698 29.05729335 15.52836698 29.05729335 18.65820312 31.29516602 C20.73979332 33.97149627 20.65407903 35.41270269 20.53320312 38.85766602 C19.65820312 42.29516602 19.65820312 42.29516602 18.18164062 43.99829102 C14.32914649 45.9782106 10.66847646 45.61247122 6.40820312 45.48266602 C5.56773437 45.46913086 4.72726562 45.4555957 3.86132812 45.44165039 C1.79334375 45.40640066 -0.27430958 45.35259622 -2.34179688 45.29516602 C-2.34179688 49.58516602 -2.34179688 53.87516602 -2.34179688 58.29516602 C-1.02824219 58.24875977 0.2853125 58.20235352 1.63867188 58.15454102 C3.37432617 58.11701336 5.11000512 58.08061426 6.84570312 58.04516602 C7.71001953 58.01165039 8.57433594 57.97813477 9.46484375 57.94360352 C13.64475236 57.87954361 16.04435389 57.9430596 19.73632812 60.06079102 C21.75552776 62.40831579 22.32159205 63.25662887 22.22070312 66.29516602 C22.22263672 67.28516602 22.22263672 67.28516602 22.22460938 68.29516602 C21.38879079 71.24647026 20.05174607 72.39137728 17.65820312 74.29516602 C14.43774414 74.82861328 14.43774414 74.82861328 10.66210938 74.86157227 C9.99155014 74.86777084 9.32099091 74.87396942 8.63011169 74.88035583 C7.21558072 74.88744129 5.80096614 74.88430199 4.38647461 74.87158203 C2.23003462 74.85772597 0.07794778 74.8917776 -2.078125 74.92993164 C-3.45638126 74.93088308 -4.83464292 74.92902267 -6.21289062 74.92407227 C-7.45997803 74.92479736 -8.70706543 74.92552246 -9.99194336 74.92626953 C-14.30883832 74.11297797 -15.59202852 72.67086026 -18.34179688 69.29516602 C-18.96325684 66.29112244 -18.96325684 66.29112244 -18.95703125 62.91601562 C-18.96633667 61.64797592 -18.97564209 60.37993622 -18.98522949 59.07347107 C-18.96964381 57.69813924 -18.95305888 56.32281842 -18.93554688 54.94750977 C-18.93383468 53.52934368 -18.93390256 52.11117444 -18.93566895 50.69300842 C-18.93401828 47.72634445 -18.91536697 44.76043852 -18.88378906 41.79394531 C-18.84407487 37.99513023 -18.8397493 34.19730545 -18.84725189 30.39832211 C-18.85032383 27.47199969 -18.83819393 24.54589915 -18.82112122 21.61963081 C-18.81410082 20.21903437 -18.81096552 18.81841278 -18.81181335 17.417799 C-18.81001214 15.4601029 -18.78634398 13.50246391 -18.76171875 11.54492188 C-18.75329956 10.43193222 -18.74488037 9.31894257 -18.73620605 8.17222595 C-18.29508673 4.95443385 -17.61501168 3.58293397 -15.34179688 1.29516602 C-10.37210007 -0.36139959 -5.20524211 0.03092348 0 0 Z " fill="#000000" transform="translate(368.341796875,368.704833984375)"/>
<path d="M0 0 C3.06653728 0.62013463 4.16193099 2.01703582 6.10546875 4.42578125 C6.44949341 7.04763794 6.44949341 7.04763794 6.23876953 10.06689453 C6.1440461 11.77359314 6.1440461 11.77359314 6.04740906 13.51477051 C5.96602188 14.74610718 5.8846347 15.97744385 5.80078125 17.24609375 C5.68831234 19.88244881 5.58311994 22.51773852 5.49194336 25.15478516 C5.46781655 25.83793667 5.44368975 26.52108818 5.41883183 27.22494125 C3.70883793 53.88913249 3.70883793 53.88913249 14.59344482 77.07369995 C19.39146425 81.89869122 24.78278996 86.00825396 30.50756836 89.66650391 C33.10546875 91.42578125 33.10546875 91.42578125 35.10546875 94.42578125 C35.53338656 98.34836121 35.73960348 100.53329533 33.41796875 103.80078125 C30.72180758 105.69538099 29.41632472 106.42578125 26.10546875 106.42578125 C20.84686998 103.80431882 16.94967854 100.71613268 12.83984375 96.55859375 C12.27976624 96.00138641 11.71968872 95.44417908 11.14263916 94.87008667 C9.96933566 93.69881099 8.79975698 92.52379307 7.63378906 91.34521484 C5.85673438 89.55205835 4.06418666 87.77552158 2.26953125 86 C1.12533875 84.85382544 -0.01792297 83.7067208 -1.16015625 82.55859375 C-1.95706879 81.77079025 -1.95706879 81.77079025 -2.77008057 80.96707153 C-7.89123642 75.74861558 -10.26690337 71.29266813 -10.28271484 63.94897461 C-10.29217133 62.68423813 -10.30162781 61.41950165 -10.31137085 60.11643982 C-10.30600122 58.74949833 -10.29984829 57.38255972 -10.29296875 56.015625 C-10.29499192 54.60128123 -10.29790539 53.18693848 -10.30166626 51.77259827 C-10.30607676 48.81631484 -10.29969908 45.86030431 -10.28564453 42.90405273 C-10.2685373 39.12223355 -10.27841104 35.34105246 -10.29636192 31.55925655 C-10.30722109 28.64151736 -10.303744 25.72392858 -10.29597855 22.80618477 C-10.29398323 21.41198208 -10.29641227 20.01776555 -10.30341721 18.62357903 C-10.31106769 16.67345327 -10.29733214 14.72327934 -10.28271484 12.77319336 C-10.28032806 11.66544052 -10.27794128 10.55768768 -10.27548218 9.41636658 C-9.36744111 2.28795688 -6.68893755 0.36393844 0 0 Z " fill="#000000" transform="translate(255.89453125,171.57421875)"/>
<path d="M0 0 C2.91676876 2.15778791 3.8886988 3.35145185 4.50793457 6.9597168 C4.51111694 8.11125244 4.51429932 9.26278809 4.51757812 10.44921875 C4.53018677 11.75737549 4.54279541 13.06553223 4.55578613 14.41333008 C4.54862633 15.83805887 4.54042234 17.26278274 4.53125 18.6875 C4.53394549 20.15193947 4.53782838 21.61637719 4.54284668 23.08081055 C4.54873919 26.1474718 4.54018746 29.21366649 4.52148438 32.28027344 C4.4986941 36.20813636 4.51181863 40.13490606 4.53577423 44.06272888 C4.55023941 47.08598037 4.54562311 50.10897333 4.53526306 53.13223267 C4.53259772 54.58029307 4.53585882 56.02837706 4.54518127 57.47640991 C4.55535659 59.5011957 4.53709332 61.52606394 4.51757812 63.55078125 C4.51280457 65.27808472 4.51280457 65.27808472 4.50793457 67.0402832 C3.88872414 70.64840048 2.90859752 71.83401967 0 74 C-3.5 74.5 -3.5 74.5 -7 74 C-9.90717073 71.78136971 -10.83981643 70.48055071 -12 67 C-12.09845586 65.11482248 -12.13823233 63.22635671 -12.14526367 61.33862305 C-12.15164352 60.17699142 -12.15802338 59.0153598 -12.16459656 57.81852722 C-12.16570938 56.56228043 -12.1668222 55.30603363 -12.16796875 54.01171875 C-12.17296135 52.0750811 -12.17296135 52.0750811 -12.17805481 50.09931946 C-12.184042 47.36478846 -12.1858952 44.63028904 -12.18530273 41.89575195 C-12.1852013 38.4021792 -12.1988357 34.90881054 -12.21607494 31.41528606 C-12.22991227 28.07242739 -12.22928496 24.72960568 -12.23046875 21.38671875 C-12.23765427 20.13654465 -12.24483978 18.88637054 -12.25224304 17.59831238 C-12.24916641 16.42722427 -12.24608978 15.25613617 -12.24291992 14.04956055 C-12.24434494 13.02380417 -12.24576996 11.99804779 -12.24723816 10.94120789 C-11.97055465 7.64971061 -11.29627058 5.0373417 -10 2 C-6.2794164 -0.48038907 -4.40203429 -0.46337203 0 0 Z " fill="#000000" transform="translate(255,369)"/>
</svg>
