
<svg width="512" height="512" viewBox="0 0 512 512" fill="none" xmlns="http://www.w3.org/2000/svg">
<path d="M53 333C186.98 333 320.96 333 459 333C455.625 344.25 455.625 344.25 454.118 348.332C453.781 349.251 453.443 350.17 453.095 351.116C452.561 352.557 452.561 352.557 452.016 354.027C451.448 355.57 451.448 355.57 450.868 357.144C449.665 360.409 448.458 363.673 447.25 366.938C446.455 369.092 445.661 371.246 444.867 373.4C443.38 377.435 441.89 381.47 440.399 385.504C423.289 431.829 430.826 426.861 430 502C315.16 502 200.32 502 82 502C81.67 471.97 81.34 441.94 81 411C72.0601 386.564 63.1102 362.144 53.9553 337.789C53 335 53 335 53 333Z" fill="#FF6859"/>
<path d="M28.6954 270.869C29.4909 270.866 30.2864 270.864 31.1061 270.862C33.7941 270.857 36.4822 270.858 39.1702 270.859C41.1079 270.857 43.0456 270.854 44.9833 270.85C50.3256 270.842 55.6679 270.841 61.0102 270.84C66.7649 270.838 72.5196 270.83 78.2743 270.824C90.865 270.81 103.456 270.804 116.046 270.8C123.903 270.797 131.759 270.793 139.616 270.788C161.353 270.776 183.091 270.766 204.829 270.762C206.235 270.762 207.641 270.762 209.047 270.762C210.456 270.761 211.865 270.761 213.275 270.761C216.102 270.761 218.93 270.76 221.757 270.76C222.809 270.76 222.809 270.76 223.882 270.759C246.623 270.756 269.364 270.74 292.104 270.717C316.138 270.692 340.172 270.678 364.206 270.677C377.311 270.676 390.416 270.67 403.521 270.652C414.678 270.637 425.834 270.632 436.991 270.64C442.687 270.644 448.382 270.643 454.078 270.629C459.288 270.616 464.497 270.617 469.707 270.629C471.596 270.631 473.485 270.628 475.374 270.62C477.934 270.609 480.493 270.616 483.053 270.628C483.793 270.62 484.533 270.613 485.296 270.605C490.724 270.661 493.888 271.996 497.788 275.695C499.535 279.018 499.429 282.206 499.399 285.871C499.401 286.63 499.404 287.39 499.407 288.172C499.409 289.775 499.404 291.378 499.391 292.981C499.375 295.426 499.391 297.869 499.41 300.314C499.408 301.875 499.404 303.435 499.399 304.996C499.405 305.723 499.411 306.45 499.417 307.2C499.356 311.629 498.816 314.532 496 318C492.324 320.539 488.448 320.28 484.15 320.254C483.35 320.258 482.55 320.261 481.726 320.264C479.029 320.272 476.331 320.266 473.634 320.261C471.687 320.264 469.74 320.268 467.793 320.272C462.431 320.283 457.068 320.28 451.705 320.276C445.926 320.274 440.148 320.283 434.369 320.29C423.044 320.303 411.718 320.305 400.392 320.302C391.19 320.3 381.988 320.302 372.785 320.307C371.477 320.307 370.169 320.308 368.822 320.308C366.165 320.31 363.508 320.311 360.851 320.312C343.003 320.32 325.155 320.324 307.307 320.32C306.609 320.319 305.911 320.319 305.191 320.319C301.652 320.318 298.113 320.318 294.574 320.317C293.871 320.316 293.169 320.316 292.444 320.316C291.023 320.316 289.602 320.315 288.18 320.315C266.059 320.31 243.939 320.318 221.818 320.336C196.976 320.357 172.134 320.368 147.291 320.364C134.134 320.362 120.976 320.364 107.819 320.378C96.6184 320.39 85.418 320.392 74.2174 320.379C68.4994 320.374 62.7815 320.373 57.0635 320.384C51.8334 320.395 46.6035 320.392 41.3735 320.378C39.4771 320.376 37.5808 320.378 35.6845 320.386C33.1146 320.396 30.5454 320.388 27.9756 320.375C26.8611 320.386 26.8611 320.386 25.7241 320.397C21.3076 320.35 18.5312 319.684 15.0001 317C12.3399 313.497 12.6602 309.39 12.629 305.164C12.62 304.407 12.611 303.65 12.6017 302.87C12.5872 301.272 12.5783 299.673 12.5746 298.074C12.5627 295.64 12.5135 293.207 12.463 290.773C12.4535 289.216 12.4463 287.659 12.4415 286.101C12.422 285.379 12.4024 284.657 12.3823 283.913C12.4165 280.047 12.9773 277.546 15.3475 274.556C19.512 270.543 23.2239 270.856 28.6954 270.869Z" fill="#FF6859" fill-opacity="0.5"/>
<path d="M345.25 9.73438C345.945 9.73246 346.64 9.73055 347.357 9.72858C348.822 9.72722 350.288 9.73089 351.754 9.73926C353.993 9.74996 356.23 9.73935 358.469 9.72656C359.896 9.72788 361.323 9.73045 362.75 9.73438C364.044 9.73663 365.339 9.73889 366.672 9.74121C369.761 9.98144 371.499 10.2198 374 12C374.977 14.5742 374.977 14.5742 375.625 17.6875C376.08 19.7925 376.538 21.8966 377 24C377.104 25.1705 377.209 26.3409 377.316 27.5469C380.119 33.295 385.547 34.4259 391.313 36.5625C392.454 37.0246 393.596 37.4868 394.772 37.9629C400.602 40.5505 400.602 40.5505 406.698 40.2192C410.435 38.2402 413.823 35.7869 417.281 33.3633C420 32 420 32 422.629 32.125C426.944 33.7173 429.723 36.8499 433 40C433.561 40.5295 434.121 41.059 434.699 41.6045C436.604 43.4104 438.492 45.2337 440.375 47.0625C440.994 47.6518 441.614 48.2412 442.252 48.8484C445.721 52.2735 448.205 55.0065 449 60C448.242 62.3438 448.242 62.3438 446.875 64.5C446.406 65.2683 445.937 66.0366 445.453 66.8281C444.219 68.6726 442.935 70.4599 441.625 72.25C439.733 74.8113 439.733 74.8113 440.296 77.3472C443.94 92.427 443.94 92.427 453.02 104.039C456.1 104.744 458.846 104.991 462 105C464.56 105.435 466.562 106.046 469 107C472.021 112.57 471.335 118.756 471.316 124.92C471.313 126.994 471.336 129.067 471.361 131.141C471.362 132.455 471.363 133.77 471.363 135.125C471.366 136.324 471.369 137.523 471.372 138.758C470.965 142.306 470.168 144.186 468 147C465.293 148.074 465.293 148.074 462.188 148.688C454.294 149.794 454.294 149.794 448.385 154.367C447.794 155.821 447.794 155.821 447.191 157.305C446.537 158.892 446.537 158.892 445.869 160.512C445.438 161.622 445.007 162.731 444.563 163.875C444.104 164.977 443.646 166.079 443.174 167.215C440.252 173.479 440.252 173.479 441 180C442.701 182.763 444.454 185.463 446.293 188.135C447.904 190.609 449.026 192.353 448.906 195.354C447.093 200.648 442.383 204.321 438.482 208.204C436.881 209.806 435.312 211.435 433.742 213.068C432.723 214.096 431.702 215.121 430.68 216.145C429.299 217.542 429.299 217.542 427.89 218.968C424.293 221.497 422.312 221.536 418 221C414.867 219.215 414.867 219.215 411.875 216.938C408.162 213.796 408.162 213.796 403.646 213.294C388.55 216.943 388.55 216.943 376.961 226.055C376.266 229.119 376.022 231.865 376 235C374.342 240.659 374.342 240.659 372 243C369.31 243.212 366.726 243.304 364.035 243.301C363.246 243.305 362.457 243.309 361.644 243.314C359.974 243.32 358.303 243.32 356.633 243.316C354.076 243.313 351.52 243.336 348.963 243.361C347.341 243.364 345.719 243.364 344.098 243.363C343.332 243.372 342.566 243.382 341.777 243.391C336.517 243.345 336.517 243.345 334.047 241.694C331.985 238.357 331.773 234.27 331.184 230.449C330.522 226.595 330.04 224.471 327 222C323.482 220.176 319.793 218.746 316.125 217.25C315.131 216.826 314.137 216.402 313.113 215.965C312.15 215.569 311.188 215.173 310.195 214.766C308.881 214.221 308.881 214.221 307.54 213.665C304.596 212.894 302.89 213.116 300 214C297.449 215.711 295.094 217.587 292.695 219.504C289.142 221.476 287.031 221.434 283 221C280.11 218.968 280.11 218.968 277.32 216.145C276.573 215.397 276.573 215.397 275.811 214.633C274.765 213.58 273.729 212.518 272.7 211.448C271.128 209.815 269.528 208.214 267.922 206.615C259.151 197.711 259.151 197.711 259 193C260.772 189.863 262.717 187.069 264.84 184.172C267.38 180.721 267.38 180.721 267.735 176.616C266.407 171.89 264.612 167.375 262.813 162.812C262.251 161.298 262.251 161.298 261.678 159.752C259.596 154.076 259.596 154.076 255.09 150.418C254.07 150.28 253.051 150.142 252 150C250.964 149.742 249.927 149.484 248.859 149.219C246.777 148.737 244.693 148.258 242.609 147.781C240 147 240 147 238 145C237.788 142.31 237.696 139.726 237.699 137.035C237.695 136.246 237.691 135.457 237.686 134.644C237.681 132.974 237.68 131.303 237.684 129.633C237.688 127.076 237.664 124.52 237.639 121.963C237.636 120.341 237.636 118.719 237.637 117.098C237.628 116.332 237.618 115.566 237.609 114.777C237.655 109.516 237.655 109.516 239.304 107.051C242.14 105.294 245.322 104.915 248.563 104.375C253.419 103.643 253.419 103.643 258 102C259.973 98.1971 261.538 94.2024 263.188 90.25C263.664 89.1517 264.14 88.0534 264.631 86.9219C265.076 85.8597 265.522 84.7975 265.981 83.7031C266.392 82.7302 266.803 81.7573 267.227 80.7549C268.095 77.6616 267.971 76.0362 267 73C264.997 69.8752 262.819 66.9244 260.617 63.9375C259 61 259 61 259.09 58.3398C260.752 54.0673 263.851 51.2655 267 48C267.54 47.4394 268.08 46.8788 268.637 46.3013C270.478 44.3999 272.33 42.5103 274.188 40.625C274.794 40.0057 275.4 39.3864 276.024 38.7483C276.9 37.8713 276.9 37.8713 277.793 36.9766C278.314 36.4514 278.835 35.9263 279.372 35.3853C281.938 33.2017 283.97 31.9492 287.375 32.1172C291.84 33.6189 295.301 36.6097 299.063 39.3828C302.559 41.3078 303.273 40.9934 307 40C320.606 36.4025 320.606 36.4025 331.039 27.9805C331.744 24.9009 331.987 22.1532 332 19C333.192 12.5824 333.192 12.5824 335.613 10.8369C338.889 9.68833 341.781 9.74042 345.25 9.73438ZM307.383 80.5273C298.066 90.1956 290.817 102.547 289 116C288.867 116.888 288.735 117.776 288.598 118.691C286.324 137.882 292.523 154.458 303.957 169.59C314.005 181.688 329.667 190.695 345.447 192.24C365.773 193.274 382.271 189.224 398.188 175.875C409.905 164.78 418.624 149.234 419.336 132.898C419.666 112.864 415.398 96.0652 401.255 81.1104C374.981 54.5551 334.249 55.3036 307.383 80.5273Z" fill="#FF6859"/>
<path d="M229.002 192.767C247.11 209.346 259.146 229.099 265 253C265 254.65 265 256.3 265 258C191.74 258 118.48 258 43 258C47.8583 235.328 56.2666 217.029 72 200C72.9823 198.896 72.9823 198.896 73.9844 197.769C89.8511 180.784 114.095 169.133 137 166C137.757 165.89 138.513 165.781 139.293 165.668C171.478 161.73 204.619 171.245 229.002 192.767Z" fill="#FF6859"/>
<path d="M181.875 64.3125C192.846 71.8495 201.251 82.7092 204 96C206.158 110.04 204.128 123.404 196.398 135.508C188.211 146.536 177.48 153.883 164 157C148.062 158.642 134.719 156.084 122 146C121.113 145.402 120.226 144.804 119.312 144.188C110.435 135.79 104.583 123.646 103.761 111.469C103.468 95.7785 107.636 83.04 118 71C136.266 55.1369 160.867 51.6566 181.875 64.3125Z" fill="#FF6859"/>
<path d="M473 333C473.66 333 474.32 333 475 333C475 388.77 475 444.54 475 502C464.44 502 453.88 502 443 502C439.37 406.694 439.37 406.694 458.717 368.677C462.05 362.039 464.448 355.074 466.869 348.064C467.924 345.022 469.024 341.997 470.129 338.973C470.641 337.554 470.641 337.554 471.163 336.106C472 334 472 334 473 333Z" fill="#FF6859" fill-opacity="0.5"/>
<path d="M37 333C40 334 40 334 40.9701 335.785C41.39 336.957 41.39 336.957 41.8184 338.151C42.143 339.039 42.4676 339.926 42.8021 340.84C43.1459 341.816 43.4896 342.792 43.8438 343.797C44.2129 344.814 44.5821 345.832 44.9625 346.88C46.1526 350.166 47.3268 353.458 48.5 356.75C49.6405 359.921 50.7843 363.09 51.9324 366.258C52.719 368.443 53.4946 370.632 54.2603 372.824C56.2693 378.518 58.4215 384.015 61.0227 389.466C71.0414 411.234 70.3265 432.167 69.7553 455.712C69.6408 460.949 69.5921 466.186 69.5371 471.424C69.4207 481.618 69.228 491.808 69 502C58.44 502 47.88 502 37 502C37 446.23 37 390.46 37 333Z" fill="#FF6859" fill-opacity="0.5"/>
<path d="M371 80C377.357 84.9883 381.328 90.7069 383.75 98.375C384.776 109.145 383.446 117.117 377 126C375.154 127.954 373.314 129.834 371.375 131.688C367.052 135.857 364.025 138.815 363.187 144.938C362.517 148.498 362.169 149.803 359.75 152.625C356.436 154.282 354.659 154.61 351 154C348.352 152.352 348.352 152.352 346 150C344.394 143.03 345.543 135.809 349.031 129.613C352.104 125.535 355.71 122.017 359.454 118.553C363.282 114.976 365.788 112.179 366.152 106.719C365.737 102.432 365.361 100.444 362.562 97C358.95 94.1803 356.736 93.6513 352.102 93.7188C348.621 94.1845 346.591 95.7176 344 98C342.713 100.317 342.123 102.409 341.586 104.992C340.386 110.542 340.386 110.542 338.312 113C335.025 114.422 332.542 114.38 329 114C325.815 112.24 325.167 111.501 324 108C323.374 98.925 325.256 92.6411 331.25 85.6875C341.638 74.81 357.708 71.7851 371 80Z" fill="#FF6859" fill-opacity="0.84"/>
<path d="M359 160C362.142 162.828 362.746 165.857 363 170C362.061 173.366 360.999 176.1 358 178C353.715 178.476 351.27 178.699 347.5 176.625C345.213 172.622 345.199 168.503 346 164C349.31 158.441 353.001 158.607 359 160Z" fill="#FF6859" fill-opacity="0.84"/>
</svg>
